<?xml version="1.0" encoding="UTF-8" standalone="no"?>
<!-- Created with Inkscape (http://www.inkscape.org/) -->

<svg
   xmlns:dc="http://purl.org/dc/elements/1.1/"
   xmlns:cc="http://creativecommons.org/ns#"
   xmlns:rdf="http://www.w3.org/1999/02/22-rdf-syntax-ns#"
   xmlns:svg="http://www.w3.org/2000/svg"
   xmlns="http://www.w3.org/2000/svg"
   xmlns:sodipodi="http://sodipodi.sourceforge.net/DTD/sodipodi-0.dtd"
   xmlns:inkscape="http://www.inkscape.org/namespaces/inkscape"
   id="svg2"
   version="1.1"
   inkscape:version="0.48.3.1 r9886"
   width="990"
   height="765"
   xml:space="preserve"
   sodipodi:docname="Previous_lit_comparisons_table.pdf"><metadata
     id="metadata8"><rdf:RDF><cc:Work
         rdf:about=""><dc:format>image/svg+xml</dc:format><dc:type
           rdf:resource="http://purl.org/dc/dcmitype/StillImage" /><dc:title></dc:title></cc:Work></rdf:RDF></metadata><defs
     id="defs6"><clipPath
       clipPathUnits="userSpaceOnUse"
       id="clipPath16"><path
         d="M 0,0 792,0 792,612 0,612 0,0 z"
         clip-rule="evenodd"
         id="path18" /></clipPath><clipPath
       clipPathUnits="userSpaceOnUse"
       id="clipPath24"><path
         d="m 56.6,543.4 678.5,0 0,12 -678.5,0 0,-12 z"
         clip-rule="evenodd"
         id="path26" /></clipPath><clipPath
       clipPathUnits="userSpaceOnUse"
       id="clipPath42"><path
         d="m 56.6,56.8 678.5,0 0,12 -678.5,0 0,-12 z"
         clip-rule="evenodd"
         id="path44" /></clipPath><clipPath
       clipPathUnits="userSpaceOnUse"
       id="clipPath372"><path
         d="m 56.6,414.7 635.1,0 0,122.6 -635.1,0 0,-122.6 z"
         clip-rule="evenodd"
         id="path374" /></clipPath></defs><sodipodi:namedview
     pagecolor="#ffffff"
     bordercolor="#666666"
     borderopacity="1"
     objecttolerance="10"
     gridtolerance="10"
     guidetolerance="10"
     inkscape:pageopacity="0"
     inkscape:pageshadow="2"
     inkscape:window-width="941"
     inkscape:window-height="706"
     id="namedview4"
     showgrid="false"
     inkscape:zoom="0.43628026"
     inkscape:cx="525.9941"
     inkscape:cy="513.86785"
     inkscape:window-x="488"
     inkscape:window-y="139"
     inkscape:window-maximized="0"
     inkscape:current-layer="g10" /><g
     id="g10"
     inkscape:groupmode="layer"
     inkscape:label="Previous_lit_comparisons_table"
     transform="matrix(1.25,0,0,-1.25,0,765)"><g
       id="g12"><g
         id="g14"
         clip-path="url(#clipPath16)" /></g><g
       id="g62"
       transform="matrix(1.1744045,0,0,1.1744045,-40.136245,-66.833186)"><text
         transform="matrix(1,0,0,-1,57.5,529.5)"
         id="text64"><tspan
           style="font-size:8.30000019px;font-variant:normal;font-weight:bold;writing-mode:lr-tb;fill:#000000;fill-opacity:1;fill-rule:nonzero;stroke:none;font-family:Arial;-inkscape-font-specification:Arial-BoldMT"
           x="0 5.5029001 10.5908 15.6787 17.9778 20.276899 24.875099 29.473301 32.2621 34.561199 39.649101"
           y="0"
           sodipodi:role="line"
           id="tspan66">Publication</tspan></text>
</g><g
       id="g68"
       transform="matrix(1.1744045,0,0,1.1744045,-40.136245,-66.833186)"><text
         transform="matrix(1,0,0,-1,159.6,529.5)"
         id="text70"><tspan
           style="font-size:8.30000019px;font-variant:normal;font-weight:bold;writing-mode:lr-tb;fill:#000000;fill-opacity:1;fill-rule:nonzero;stroke:none;font-family:Arial;-inkscape-font-specification:Arial-BoldMT"
           x="0 5.9926 8.2917004 13.3796 16.583401 21.671301 24.4601 29.0583 31.357401 36.445301 41.043499 43.342602 46.131401 51.219299 56.307201 61.3951"
           y="0"
           sodipodi:role="line"
           id="tspan72">N proteins found</tspan></text>
</g><g
       id="g74"
       transform="matrix(1.1744045,0,0,1.1744045,-40.136245,-66.833186)"><text
         transform="matrix(1,0,0,-1,234.3,529.5)"
         id="text76"><tspan
           style="font-size:8.30000019px;font-variant:normal;font-weight:bold;writing-mode:lr-tb;fill:#000000;fill-opacity:1;fill-rule:nonzero;stroke:none;font-family:Arial;-inkscape-font-specification:Arial-BoldMT"
           x="0 5.9926 11.0805 13.8693 18.957199 21.746"
           y="0"
           sodipodi:role="line"
           id="tspan78">Cutoff</tspan></text>
</g><g
       id="g80"
       transform="matrix(1.1744045,0,0,1.1744045,-40.136245,-66.833186)"><text
         transform="matrix(1,0,0,-1,296.6,529.5)"
         id="text82"><tspan
           style="font-size:8.30000019px;font-variant:normal;font-weight:bold;writing-mode:lr-tb;fill:#000000;fill-opacity:1;fill-rule:nonzero;stroke:none;font-family:Arial;-inkscape-font-specification:Arial-BoldMT"
           x="0 5.0879002 9.6861 14.2843 19.3722 24.4601 26.759199 31.847099 36.935001"
           y="0"
           sodipodi:role="line"
           id="tspan84">Technique</tspan></text>
</g><g
       id="g86"
       transform="matrix(1.1744045,0,0,1.1744045,-40.136245,-66.833186)"><text
         transform="matrix(1,0,0,-1,534.2,529.5)"
         id="text88"><tspan
           style="font-size:8.30000019px;font-variant:normal;font-weight:bold;writing-mode:lr-tb;fill:#000000;fill-opacity:1;fill-rule:nonzero;stroke:none;font-family:Arial;-inkscape-font-specification:Arial-BoldMT"
           x="0 5.9926 11.0805 13.8693 18.957199 21.746"
           y="0"
           sodipodi:role="line"
           id="tspan90">Cutoff</tspan></text>
</g><g
       id="g92"
       transform="matrix(1.1744045,0,0,1.1744045,-40.136245,-66.833186)"><text
         transform="matrix(1,0,0,-1,646.3,529.5)"
         id="text94"><tspan
           style="font-size:8.30000019px;font-variant:normal;font-weight:bold;writing-mode:lr-tb;fill:#000000;fill-opacity:1;fill-rule:nonzero;stroke:none;font-family:Arial;-inkscape-font-specification:Arial-BoldMT"
           x="0 5.0879002 9.6861 14.2843 19.3722 24.4601 26.759199 31.847099 36.935001"
           y="0"
           sodipodi:role="line"
           id="tspan96">Technique</tspan></text>
</g><g
       id="g98"
       transform="matrix(1.1744045,0,0,1.1744045,-40.136245,-66.833186)"><text
         transform="matrix(1,0,0,-1,57.5,515.1)"
         id="text100"><tspan
           style="font-size:8.30000019px;font-variant:normal;font-weight:normal;writing-mode:lr-tb;fill:#000000;fill-opacity:1;fill-rule:nonzero;stroke:none;font-family:ArialMT;-inkscape-font-specification:ArialMT"
           x="0 5.1957998 9.7939997 11.5951 15.7866 18.085699 22.277201 24.5763 29.1745 33.772701"
           y="0"
           sodipodi:role="line"
           id="tspan102">This study</tspan></text>
</g><g
       id="g104"
       transform="matrix(1.1744045,0,0,1.1744045,-40.136245,-66.833186)"><text
         transform="matrix(1,0,0,-1,159.6,515.1)"
         id="text106"><tspan
           style="font-size:8.30000019px;font-variant:normal;font-weight:normal;writing-mode:lr-tb;fill:#000000;fill-opacity:1;fill-rule:nonzero;stroke:none;font-family:ArialMT;-inkscape-font-specification:ArialMT"
           x="0 4.5981998 9.1963997 13.7946 18.392799 20.6919 23.8957 26.194799 28.983601 33.581799 35.880901 38.18 42.778198 47.3764 50.165199 54.356701"
           y="0"
           sodipodi:role="line"
           id="tspan108">2648 * (at 3hrs)</tspan></text>
</g><g
       id="g110"
       transform="matrix(1.1744045,0,0,1.1744045,-40.136245,-66.833186)"><text
         transform="matrix(1,0,0,-1,234.3,515.1)"
         id="text112"><tspan
           style="font-size:8.30000019px;font-variant:normal;font-weight:normal;writing-mode:lr-tb;fill:#000000;fill-opacity:1;fill-rule:nonzero;stroke:none;font-family:ArialMT;-inkscape-font-specification:ArialMT"
           x="0 5.0879002 11.0805 17.073099 21.870501 26.4687"
           y="0"
           sodipodi:role="line"
           id="tspan114">FDR&lt;1%</tspan></text>
</g><g
       id="g116"
       transform="matrix(1.1744045,0,0,1.1744045,-40.136245,-66.833186)"><text
         transform="matrix(1,0,0,-1,296.6,515.1)"
         id="text118"><tspan
           style="font-size:8.30000019px;font-variant:normal;font-weight:normal;writing-mode:lr-tb;fill:#000000;fill-opacity:1;fill-rule:nonzero;stroke:none;font-family:ArialMT;-inkscape-font-specification:ArialMT"
           x="0 5.5029001 10.1011 14.6993 16.9984 21.5966 26.194799 30.792999 33.092098 39.989399"
           y="0"
           sodipodi:role="line"
           id="tspan120">Shotgun MS</tspan></text>
</g><g
       id="g122"
       transform="matrix(1.1744045,0,0,1.1744045,-40.136245,-66.833186)"><text
         transform="matrix(1,0,0,-1,534.2,515.1)"
         id="text124"><tspan
           style="font-size:8.30000019px;font-variant:normal;font-weight:normal;writing-mode:lr-tb;fill:#000000;fill-opacity:1;fill-rule:nonzero;stroke:none;font-family:ArialMT;-inkscape-font-specification:ArialMT"
           x="0"
           y="0"
           id="tspan126">?</tspan></text>
</g><g
       id="g128"
       transform="matrix(1.1744045,0,0,1.1744045,-40.136245,-66.833186)"><text
         transform="matrix(1,0,0,-1,646.3,515.1)"
         id="text130"><tspan
           style="font-size:8.30000019px;font-variant:normal;font-weight:normal;writing-mode:lr-tb;fill:#000000;fill-opacity:1;fill-rule:nonzero;stroke:none;font-family:ArialMT;-inkscape-font-specification:ArialMT"
           x="0 5.9926 11.9852 17.4881 20.276899 24.468399 29.066601"
           y="0"
           sodipodi:role="line"
           id="tspan132">RNA-seq</tspan></text>
</g><g
       id="g134"
       transform="matrix(1.1744045,0,0,1.1744045,-40.136245,-66.833186)"><text
         transform="matrix(1,0,0,-1,159.6,499.6)"
         id="text136"><tspan
           style="font-size:8.30000019px;font-variant:normal;font-weight:normal;writing-mode:lr-tb;fill:#000000;fill-opacity:1;fill-rule:nonzero;stroke:none;font-family:ArialMT;-inkscape-font-specification:ArialMT"
           x="0 4.5981998"
           y="0"
           sodipodi:role="line"
           id="tspan138">60</tspan></text>
</g><g
       id="g140"
       transform="matrix(1.1744045,0,0,1.1744045,-40.136245,-66.833186)"><text
         transform="matrix(1,0,0,-1,234.3,499.6)"
         id="text142"><tspan
           style="font-size:8.30000019px;font-variant:normal;font-weight:normal;writing-mode:lr-tb;fill:#000000;fill-opacity:1;fill-rule:nonzero;stroke:none;font-family:ArialMT;-inkscape-font-specification:ArialMT"
           x="0 2.3903999 6.9885998 8.7896996 13.3879 15.687 19.8785 24.4767 29.0749 33.6731 38.271301 42.869499 47.666901 52.265099"
           y="0"
           sodipodi:role="line"
           id="tspan144">fold change&gt;2 </tspan></text>
</g><g
       id="g146"
       transform="matrix(1.1744045,0,0,1.1744045,-40.136245,-66.833186)"><text
         transform="matrix(1,0,0,-1,296.6,499.6)"
         id="text148"><tspan
           style="font-size:8.30000019px;font-variant:normal;font-weight:normal;writing-mode:lr-tb;fill:#000000;fill-opacity:1;fill-rule:nonzero;stroke:none;font-family:ArialMT;-inkscape-font-specification:ArialMT"
           x="0 4.5981998 7.3870001 13.3796 15.6787 20.276899 24.875099"
           y="0"
           sodipodi:role="line"
           id="tspan150">2-D gel</tspan></text>
</g><g
       id="g152"
       transform="matrix(1.1744045,0,0,1.1744045,-40.136245,-66.833186)"><text
         transform="matrix(1,0,0,-1,350,499.6)"
         id="text154"><tspan
           style="font-size:8.30000019px;font-variant:normal;font-weight:normal;writing-mode:lr-tb;fill:#000000;fill-opacity:1;fill-rule:nonzero;stroke:none;font-family:ArialMT;-inkscape-font-specification:ArialMT"
           x="0 4.5981998 9.1963997 13.7946 18.392799 20.6919 25.2901 29.8883 34.4865 39.084702 41.383801 45.981998 48.770802 53.368999 57.967201 62.565399 66.756897 69.056 71.844803 77.837402 83.340302 87.938499 92.536697 97.134903 101.7331 104.0322 108.2237 110.5228 113.3116 117.9098 119.7109 124.3091"
           y="0"
           sodipodi:role="line"
           id="tspan156">4144 gene probes (REL606 strain)</tspan></text>
</g><g
       id="g158"
       transform="matrix(1.1744045,0,0,1.1744045,-40.136245,-66.833186)"><text
         transform="matrix(1,0,0,-1,534.2,499.6)"
         id="text160"><tspan
           style="font-size:8.30000019px;font-variant:normal;font-weight:normal;writing-mode:lr-tb;fill:#000000;fill-opacity:1;fill-rule:nonzero;stroke:none;font-family:ArialMT;-inkscape-font-specification:ArialMT"
           x="0 5.9926"
           y="0"
           sodipodi:role="line"
           id="tspan162">NA</tspan></text>
</g><g
       id="g164"
       transform="matrix(1.1744045,0,0,1.1744045,-40.136245,-66.833186)"><text
         transform="matrix(1,0,0,-1,159.6,485.1)"
         id="text166"><tspan
           style="font-size:8.30000019px;font-variant:normal;font-weight:normal;writing-mode:lr-tb;fill:#000000;fill-opacity:1;fill-rule:nonzero;stroke:none;font-family:ArialMT;-inkscape-font-specification:ArialMT"
           x="0 4.5981998 9.1963997 13.7946"
           y="0"
           sodipodi:role="line"
           id="tspan168">1018</tspan></text>
</g><g
       id="g170"
       transform="matrix(1.1744045,0,0,1.1744045,-40.136245,-66.833186)"><text
         transform="matrix(1,0,0,-1,234.3,485.1)"
         id="text172"><tspan
           style="font-size:8.30000019px;font-variant:normal;font-weight:normal;writing-mode:lr-tb;fill:#000000;fill-opacity:1;fill-rule:nonzero;stroke:none;font-family:ArialMT;-inkscape-font-specification:ArialMT"
           x="0 5.9926"
           y="0"
           sodipodi:role="line"
           id="tspan174">NA</tspan></text>
</g><g
       id="g176"
       transform="matrix(1.1744045,0,0,1.1744045,-40.136245,-66.833186)"><text
         transform="matrix(1,0,0,-1,296.6,485.1)"
         id="text178"><tspan
           style="font-size:8.30000019px;font-variant:normal;font-weight:normal;writing-mode:lr-tb;fill:#000000;fill-opacity:1;fill-rule:nonzero;stroke:none;font-family:ArialMT;-inkscape-font-specification:ArialMT"
           x="0 5.4032998 10.4912 15.9941 18.2932 20.683599 25.281799 29.473301 31.274401 35.872601"
           y="0"
           sodipodi:role="line"
           id="tspan180">YFP fusion</tspan></text>
</g><g
       id="g182"
       transform="matrix(1.1744045,0,0,1.1744045,-40.136245,-66.833186)"><text
         transform="matrix(1,0,0,-1,350,485.1)"
         id="text184"><tspan
           style="font-size:8.30000019px;font-variant:normal;font-weight:normal;writing-mode:lr-tb;fill:#000000;fill-opacity:1;fill-rule:nonzero;stroke:none;font-family:ArialMT;-inkscape-font-specification:ArialMT"
           x="0 4.5981998 9.1963997"
           y="0"
           sodipodi:role="line"
           id="tspan186">137</tspan></text>
</g><g
       id="g188"
       transform="matrix(1.1744045,0,0,1.1744045,-40.136245,-66.833186)"><text
         transform="matrix(1,0,0,-1,534.2,485.1)"
         id="text190"><tspan
           style="font-size:8.30000019px;font-variant:normal;font-weight:normal;writing-mode:lr-tb;fill:#000000;fill-opacity:1;fill-rule:nonzero;stroke:none;font-family:ArialMT;-inkscape-font-specification:ArialMT"
           x="0 4.5981998 9.1963997 16.5917 18.8908 23.0823 27.6805 32.278702 34.669102 36.4702 41.068401 45.666599 50.264801 54.456299"
           y="0"
           sodipodi:role="line"
           id="tspan192">95% confidence</tspan></text>
</g><g
       id="g194"
       transform="matrix(1.1744045,0,0,1.1744045,-40.136245,-66.833186)"><text
         transform="matrix(1,0,0,-1,646.3,485.1)"
         id="text196"><tspan
           style="font-size:8.30000019px;font-variant:normal;font-weight:normal;writing-mode:lr-tb;fill:#000000;fill-opacity:1;fill-rule:nonzero;stroke:none;font-family:ArialMT;-inkscape-font-specification:ArialMT"
           x="0 5.0879002 7.3870001 12.8899"
           y="0"
           sodipodi:role="line"
           id="tspan198">FISH</tspan></text>
</g><g
       id="g200"
       transform="matrix(1.1744045,0,0,1.1744045,-40.136245,-66.833186)"><text
         transform="matrix(1,0,0,-1,159.6,466.8)"
         id="text202"><tspan
           style="font-size:8.30000019px;font-variant:normal;font-weight:normal;writing-mode:lr-tb;fill:#000000;fill-opacity:1;fill-rule:nonzero;stroke:none;font-family:ArialMT;-inkscape-font-specification:ArialMT"
           x="0 4.7974 9.3956003 11.6947 16.2929 20.8911"
           y="0"
           sodipodi:role="line"
           id="tspan204">~1,000</tspan></text>
</g><g
       id="g206"
       transform="matrix(1.1744045,0,0,1.1744045,-40.136245,-66.833186)"><text
         transform="matrix(1,0,0,-1,234.3,466.8)"
         id="text208"><tspan
           style="font-size:8.30000019px;font-variant:normal;font-weight:normal;writing-mode:lr-tb;fill:#000000;fill-opacity:1;fill-rule:nonzero;stroke:none;font-family:ArialMT;-inkscape-font-specification:ArialMT"
           x="0 5.5029001 8.2917004 12.3919 16.990101 18.791201 23.3894 27.9876 32.785 37.383202 39.682301 44.280499"
           y="0"
           sodipodi:role="line"
           id="tspan210">P-value&lt;0.05</tspan></text>
</g><g
       id="g212"
       transform="matrix(1.1744045,0,0,1.1744045,-40.136245,-66.833186)"><text
         transform="matrix(1,0,0,-1,296.6,466.8)"
         id="text214"><tspan
           style="font-size:8.30000019px;font-variant:normal;font-weight:normal;writing-mode:lr-tb;fill:#000000;fill-opacity:1;fill-rule:nonzero;stroke:none;font-family:ArialMT;-inkscape-font-specification:ArialMT"
           x="0 5.5029001 10.1011 14.6993 16.9984 21.5966 26.194799 30.792999 33.092098 39.989399"
           y="0"
           sodipodi:role="line"
           id="tspan216">Shotgun MS</tspan></text>
</g><g
       id="g218"
       transform="matrix(1.1744045,0,0,1.1744045,-40.136245,-66.833186)"><text
         transform="matrix(1,0,0,-1,350,449.4)"
         id="text220"><tspan
           style="font-size:8.30000019px;font-variant:normal;font-weight:normal;writing-mode:lr-tb;fill:#000000;fill-opacity:1;fill-rule:nonzero;stroke:none;font-family:ArialMT;-inkscape-font-specification:ArialMT"
           x="0 4.5981998 9.1963997 13.7946 18.392799 20.6919 25.2901 29.8883 34.4865 39.084702 41.383801 45.981998 48.770802 53.368999 57.967201 62.565399"
           y="0"
           sodipodi:role="line"
           id="tspan222">4428 gene probes</tspan></text>
</g><g
       id="g224"
       transform="matrix(1.1744045,0,0,1.1744045,-40.136245,-66.833186)"><text
         transform="matrix(1,0,0,-1,534.2,449.4)"
         id="text226"><tspan
           style="font-size:8.30000019px;font-variant:normal;font-weight:normal;writing-mode:lr-tb;fill:#000000;fill-opacity:1;fill-rule:nonzero;stroke:none;font-family:ArialMT;-inkscape-font-specification:ArialMT"
           x="0 5.9926"
           y="0"
           sodipodi:role="line"
           id="tspan228">NA</tspan></text>
</g><g
       id="g230"
       transform="matrix(1.1744045,0,0,1.1744045,-40.136245,-66.833186)"><text
         transform="matrix(1,0,0,-1,159.6,433)"
         id="text232"><tspan
           style="font-size:8.30000019px;font-variant:normal;font-weight:normal;writing-mode:lr-tb;fill:#000000;fill-opacity:1;fill-rule:nonzero;stroke:none;font-family:ArialMT;-inkscape-font-specification:ArialMT"
           x="0 4.5981998 9.1963997 13.7946 18.392799"
           y="0"
           sodipodi:role="line"
           id="tspan234">2053*</tspan></text>
</g><g
       id="g236"
       transform="matrix(1.1744045,0,0,1.1744045,-40.136245,-66.833186)"><text
         transform="matrix(1,0,0,-1,234.3,433)"
         id="text238"><tspan
           style="font-size:8.30000019px;font-variant:normal;font-weight:normal;writing-mode:lr-tb;fill:#000000;fill-opacity:1;fill-rule:nonzero;stroke:none;font-family:ArialMT;-inkscape-font-specification:ArialMT"
           x="0 5.0879002 11.0805 17.073099 21.870501 26.4687"
           y="0"
           sodipodi:role="line"
           id="tspan240">FDR&lt;1%</tspan></text>
</g><g
       id="g242"
       transform="matrix(1.1744045,0,0,1.1744045,-40.136245,-66.833186)"><text
         transform="matrix(1,0,0,-1,296.6,433)"
         id="text244"><tspan
           style="font-size:8.30000019px;font-variant:normal;font-weight:normal;writing-mode:lr-tb;fill:#000000;fill-opacity:1;fill-rule:nonzero;stroke:none;font-family:ArialMT;-inkscape-font-specification:ArialMT"
           x="0 5.5029001 7.802 12.4002 17.903099"
           y="0"
           sodipodi:role="line"
           id="tspan246">SILAC</tspan></text>
</g><g
       id="g248"
       transform="matrix(1.1744045,0,0,1.1744045,-40.136245,-66.833186)"><text
         transform="matrix(1,0,0,-1,646.3,417.5)"
         id="text250"><tspan
           style="font-size:8.30000019px;font-variant:normal;font-weight:normal;writing-mode:lr-tb;fill:#000000;fill-opacity:1;fill-rule:nonzero;stroke:none;font-family:ArialMT;-inkscape-font-specification:ArialMT"
           x="0 5.9926 11.9852 17.4881 20.276899 24.468399 29.066601"
           y="0"
           sodipodi:role="line"
           id="tspan252">RNA-seq</tspan></text>
</g><g
       id="g254"
       transform="matrix(1.1744045,0,0,1.1744045,-40.136245,-66.833186)"><text
         transform="matrix(1,0,0,-1,350,529.5)"
         id="text256"><tspan
           style="font-size:8.30000019px;font-variant:normal;font-weight:bold;writing-mode:lr-tb;fill:#000000;fill-opacity:1;fill-rule:nonzero;stroke:none;font-family:Arial;-inkscape-font-specification:Arial-BoldMT"
           x="0 4.6894999 6.9885998 12.9812 18.8825 24.875099"
           y="0"
           sodipodi:role="line"
           id="tspan258"># RNAs</tspan></text>
</g><g
       id="g260"
       transform="matrix(1.1744045,0,0,1.1744045,-40.136245,-66.833186)"><text
         transform="matrix(1,0,0,-1,350,515)"
         id="text262"><tspan
           style="font-size:8.30000019px;font-variant:normal;font-weight:normal;writing-mode:lr-tb;fill:#000000;fill-opacity:1;fill-rule:nonzero;stroke:none;font-family:ArialMT;-inkscape-font-specification:ArialMT"
           x="0 4.6894999 9.2876997 13.8859 18.575399 20.8745 25.563999 30.162201 34.8517 39.449902 43.641399 45.940498 50.5387 55.228199 57.527302 62.1255 66.317001 72.309601 78.210899 83.805099 86.104202 88.494598 93.092796 97.691002 100.0814 102.3805 108.3731 114.3657 119.8686 122.1677 124.9565 129.5547 131.9451 134.2442 138.84241 143.53191 146.2294 150.32961"
           y="0"
           sodipodi:role="line"
           id="tspan264">4116 genes,89 ncRNA, 85 tRNA (at 3hrs)</tspan></text>
</g><g
       id="g266"
       transform="matrix(1.1744045,0,0,1.1744045,-40.136245,-66.833186)"><text
         transform="matrix(1,0,0,-1,57.5,499.5)"
         id="text268"><tspan
           style="font-size:8.30000019px;font-variant:normal;font-weight:normal;writing-mode:lr-tb;fill:#000000;fill-opacity:1;fill-rule:nonzero;stroke:none;font-family:ArialMT;-inkscape-font-specification:ArialMT"
           x="0 5.5942001 10.1924 14.7906 19.480101 21.7792 26.4687 28.767799 31.0669 35.756401 37.557499 39.856602 42.247002 46.8452 51.534698 56.1329"
           y="0"
           sodipodi:role="line"
           id="tspan270">Yoon et al. 2012</tspan></text>
</g><g
       id="g272"
       transform="matrix(1.1744045,0,0,1.1744045,-40.136245,-66.833186)"><text
         transform="matrix(1,0,0,-1,646.3,499.5)"
         id="text274"><tspan
           style="font-size:8.30000019px;font-variant:normal;font-weight:normal;writing-mode:lr-tb;fill:#000000;fill-opacity:1;fill-rule:nonzero;stroke:none;font-family:ArialMT;-inkscape-font-specification:ArialMT"
           x="0 6.7976999 8.6900997 12.7903 15.5791 20.177299 24.775499 27.564301 30.261801 34.951302"
           y="0"
           sodipodi:role="line"
           id="tspan276">Microarray</tspan></text>
</g><g
       id="g278"
       transform="matrix(1.1744045,0,0,1.1744045,-40.136245,-66.833186)"><text
         transform="matrix(1,0,0,-1,57.5,485.1)"
         id="text280"><tspan
           style="font-size:8.30000019px;font-variant:normal;font-weight:normal;writing-mode:lr-tb;fill:#000000;fill-opacity:1;fill-rule:nonzero;stroke:none;font-family:ArialMT;-inkscape-font-specification:ArialMT"
           x="0 5.0879002 9.6861 14.3756 16.176701 20.7749 25.464399 29.5646 34.254101 36.5532 41.151402 43.541801 45.8409 50.439098 52.331501 54.6306 56.431702 58.730801 63.4203 68.018501 72.708"
           y="0"
           sodipodi:role="line"
           id="tspan282">Taniguch et al.i 2012</tspan></text>
</g><g
       id="g284"
       transform="matrix(1.1744045,0,0,1.1744045,-40.136245,-66.833186)"><text
         transform="matrix(1,0,0,-1,57.5,466.7)"
         id="text286"><tspan
           style="font-size:8.30000019px;font-variant:normal;font-weight:normal;writing-mode:lr-tb;fill:#000000;fill-opacity:1;fill-rule:nonzero;stroke:none;font-family:ArialMT;-inkscape-font-specification:ArialMT"
           x="0 4.6894999 9.2876997 15.2803 17.0814 21.181601 23.572001 28.1702 30.469299 32.859699 37.457901 39.258999 41.649399 43.948502 48.5467 53.236198 57.8344"
           y="0"
           sodipodi:role="line"
           id="tspan288">Lewis et al. 2010</tspan></text>
</g><g
       id="g290"
       transform="matrix(1.1744045,0,0,1.1744045,-40.136245,-66.833186)"><text
         transform="matrix(1,0,0,-1,57.5,449.3)"
         id="text292"><tspan
           style="font-size:8.30000019px;font-variant:normal;font-weight:normal;writing-mode:lr-tb;fill:#000000;fill-opacity:1;fill-rule:nonzero;stroke:none;font-family:ArialMT;-inkscape-font-specification:ArialMT"
           x="0 4.6894999 9.2876997 15.2803 17.0814 21.181601 23.572001 28.1702 30.469299 32.859699 37.457901 39.258999 41.649399 43.948502 48.5467 53.236198 57.8344"
           y="0"
           sodipodi:role="line"
           id="tspan294">Lewis et al. 2009</tspan></text>
</g><g
       id="g296"
       transform="matrix(1.1744045,0,0,1.1744045,-40.136245,-66.833186)"><text
         transform="matrix(1,0,0,-1,646.3,449.3)"
         id="text298"><tspan
           style="font-size:8.30000019px;font-variant:normal;font-weight:normal;writing-mode:lr-tb;fill:#000000;fill-opacity:1;fill-rule:nonzero;stroke:none;font-family:ArialMT;-inkscape-font-specification:ArialMT"
           x="0 6.7976999 8.6900997 12.7903 15.5791 20.177299 24.775499 27.564301 30.261801 34.951302"
           y="0"
           sodipodi:role="line"
           id="tspan300">Microarray</tspan></text>
</g><g
       id="g302"
       transform="matrix(1.1744045,0,0,1.1744045,-40.136245,-66.833186)"><text
         transform="matrix(1,0,0,-1,57.5,432.9)"
         id="text304"><tspan
           style="font-size:8.30000019px;font-variant:normal;font-weight:normal;writing-mode:lr-tb;fill:#000000;fill-opacity:1;fill-rule:nonzero;stroke:none;font-family:ArialMT;-inkscape-font-specification:ArialMT"
           x="0 5.5942001 10.1924 14.7906 17.579399 22.177601 26.369101 28.6682 33.3577 35.656799 37.955898 42.645401 44.446499 46.745602 49.044701 53.7342 58.332401 63.0219"
           y="0"
           sodipodi:role="line"
           id="tspan306">Soares et al. 2013</tspan></text>
</g><g
       id="g308"
       transform="matrix(1.1744045,0,0,1.1744045,-40.136245,-66.833186)"><text
         transform="matrix(1,0,0,-1,57.5,417.4)"
         id="text310"><tspan
           style="font-size:8.30000019px;font-variant:normal;font-weight:normal;writing-mode:lr-tb;fill:#000000;fill-opacity:1;fill-rule:nonzero;stroke:none;font-family:ArialMT;-inkscape-font-specification:ArialMT"
           x="0 5.9926 10.5908 15.2803 19.8785 24.568001 28.6682 33.3577 37.955898 40.346298 44.9445 47.243599 49.542702 54.232201 56.033298 58.332401 63.0219 67.620102 72.309601 76.907799"
           y="0"
           sodipodi:role="line"
           id="tspan312">Raghavan et al. 2011</tspan></text>
</g><g
       id="g314"
       transform="matrix(1.1744045,0,0,1.1744045,-40.136245,-66.833186)"><text
         transform="matrix(1,0,0,-1,350,417.4)"
         id="text316"><tspan
           style="font-size:8.30000019px;font-variant:normal;font-weight:normal;writing-mode:lr-tb;fill:#000000;fill-opacity:1;fill-rule:nonzero;stroke:none;font-family:ArialMT;-inkscape-font-specification:ArialMT"
           x="0 6.4906001 11.0888 15.7783 20.376499 24.568001 26.8671 32.859699 38.362598 40.661701 43.052101 47.650299 52.339802 56.938 61.627499 63.926601 66.2257 72.716301 78.7089 81.008003 85.606201 90.2957 92.594803 96.786301 102.6876 108.6802"
           y="0"
           sodipodi:role="line"
           id="tspan318">Genes:NA, 1145 IGR,88 sRNA</tspan></text>
</g><g
       id="g320"
       transform="matrix(1.1744045,0,0,1.1744045,-40.136245,-66.833186)"><text
         transform="matrix(1,0,0,-1,534.2,417.4)"
         id="text322"><tspan
           style="font-size:8.30000019px;font-variant:normal;font-weight:normal;writing-mode:lr-tb;fill:#000000;fill-opacity:1;fill-rule:nonzero;stroke:none;font-family:ArialMT;-inkscape-font-specification:ArialMT"
           x="0 7.3952999 10.0928 14.691 19.380501 21.181601 25.871099 30.469299 32.768398 39.665699 44.355202 48.9534 53.642899 58.2411 62.930599"
           y="0"
           sodipodi:role="line"
           id="tspan324">%region mapped </tspan></text>
</g><g
       id="g326"
       transform="matrix(1.1744045,0,0,1.1744045,-40.136245,-66.833186)"><text
         transform="matrix(1,0,0,-1,599.5,417.4)"
         id="text328"><tspan
           style="font-size:8.30000019px;font-variant:normal;font-weight:normal;writing-mode:lr-tb;fill:#000000;fill-opacity:1;fill-rule:nonzero;stroke:none;font-family:ArialMT;-inkscape-font-specification:ArialMT"
           x="0"
           y="0"
           id="tspan330">≥</tspan></text>
</g><g
       id="g332"
       transform="matrix(1.1744045,0,0,1.1744045,-40.136245,-66.833186)"><text
         transform="matrix(1,0,0,-1,606.3904,417.4)"
         id="text334"><tspan
           style="font-size:8.30000019px;font-variant:normal;font-weight:normal;writing-mode:lr-tb;fill:#000000;fill-opacity:1;fill-rule:nonzero;stroke:none;font-family:ArialMT;-inkscape-font-specification:ArialMT"
           x="0 4.5981998 9.2876997"
           y="0"
           sodipodi:role="line"
           id="tspan336">50%</tspan></text>
</g><path
       d="m 146.24174,564.29175 0,-143.7471"
       style="fill:none;stroke:#000000;stroke-width:0.11744045;stroke-linecap:butt;stroke-linejoin:miter;stroke-miterlimit:10;stroke-opacity:1;stroke-dasharray:none"
       id="path338"
       inkscape:connector-curvature="0" /><path
       d="m 233.96975,564.29175 0,-143.7471"
       style="fill:none;stroke:#000000;stroke-width:0.11744045;stroke-linecap:butt;stroke-linejoin:miter;stroke-miterlimit:10;stroke-opacity:1;stroke-dasharray:none"
       id="path340"
       inkscape:connector-curvature="0" /><path
       d="m 307.13515,564.29175 0,-143.7471"
       style="fill:none;stroke:#000000;stroke-width:0.11744045;stroke-linecap:butt;stroke-linejoin:miter;stroke-miterlimit:10;stroke-opacity:1;stroke-dasharray:none"
       id="path342"
       inkscape:connector-curvature="0" /><path
       d="m 369.84834,564.29175 0,-143.7471"
       style="fill:none;stroke:#000000;stroke-width:0.11744045;stroke-linecap:butt;stroke-linejoin:miter;stroke-miterlimit:10;stroke-opacity:1;stroke-dasharray:none"
       id="path344"
       inkscape:connector-curvature="0" /><path
       d="m 586.17364,564.29175 0,-143.7471"
       style="fill:none;stroke:#000000;stroke-width:0.11744045;stroke-linecap:butt;stroke-linejoin:miter;stroke-miterlimit:10;stroke-opacity:1;stroke-dasharray:none"
       id="path346"
       inkscape:connector-curvature="0" /><path
       d="m 717.70694,564.29175 0,-143.7471"
       style="fill:none;stroke:#000000;stroke-width:0.11744045;stroke-linecap:butt;stroke-linejoin:miter;stroke-miterlimit:10;stroke-opacity:1;stroke-dasharray:none"
       id="path348"
       inkscape:connector-curvature="0" /><path
       d="m 772.08186,564.29175 0,-143.7471"
       style="fill:none;stroke:#000000;stroke-width:0.11744045;stroke-linecap:butt;stroke-linejoin:miter;stroke-miterlimit:10;stroke-opacity:1;stroke-dasharray:none"
       id="path350"
       inkscape:connector-curvature="0" /><path
       d="m 26.452486,552.07794 745.629374,0"
       style="fill:none;stroke:#000000;stroke-width:0.11744045;stroke-linecap:butt;stroke-linejoin:miter;stroke-miterlimit:10;stroke-opacity:1;stroke-dasharray:none"
       id="path352"
       inkscape:connector-curvature="0" /><path
       d="m 26.452486,535.04909 745.629374,0"
       style="fill:none;stroke:#000000;stroke-width:0.11744045;stroke-linecap:butt;stroke-linejoin:miter;stroke-miterlimit:10;stroke-opacity:1;stroke-dasharray:none"
       id="path354"
       inkscape:connector-curvature="0" /><path
       d="m 26.452486,516.96325 745.629374,0"
       style="fill:none;stroke:#000000;stroke-width:0.11744045;stroke-linecap:butt;stroke-linejoin:miter;stroke-miterlimit:10;stroke-opacity:1;stroke-dasharray:none"
       id="path356"
       inkscape:connector-curvature="0" /><path
       d="m 26.452486,499.93439 745.629374,0"
       style="fill:none;stroke:#000000;stroke-width:0.11744045;stroke-linecap:butt;stroke-linejoin:miter;stroke-miterlimit:10;stroke-opacity:1;stroke-dasharray:none"
       id="path358"
       inkscape:connector-curvature="0" /><path
       d="m 26.452486,478.32535 745.629374,0"
       style="fill:none;stroke:#000000;stroke-width:0.11744045;stroke-linecap:butt;stroke-linejoin:miter;stroke-miterlimit:10;stroke-opacity:1;stroke-dasharray:none"
       id="path360"
       inkscape:connector-curvature="0" /><path
       d="m 26.452486,457.89072 745.629374,0"
       style="fill:none;stroke:#000000;stroke-width:0.11744045;stroke-linecap:butt;stroke-linejoin:miter;stroke-miterlimit:10;stroke-opacity:1;stroke-dasharray:none"
       id="path362"
       inkscape:connector-curvature="0" /><path
       d="m 26.452486,438.63048 745.629374,0"
       style="fill:none;stroke:#000000;stroke-width:0.11744045;stroke-linecap:butt;stroke-linejoin:miter;stroke-miterlimit:10;stroke-opacity:1;stroke-dasharray:none"
       id="path364"
       inkscape:connector-curvature="0" /><path
       d="m 26.452486,420.54465 745.629374,0"
       style="fill:none;stroke:#000000;stroke-width:0.11744045;stroke-linecap:butt;stroke-linejoin:miter;stroke-miterlimit:10;stroke-opacity:1;stroke-dasharray:none"
       id="path366"
       inkscape:connector-curvature="0" /><g
       id="g368"><g
         id="g370"
         clip-path="url(#clipPath372)" /></g><path
       d="m 26.335046,420.30977 745.864264,0 0,143.98198 -745.864264,0 0,-143.98198 z"
       style="fill:none;stroke:#000000;stroke-width:0.11744045;stroke-linecap:butt;stroke-linejoin:miter;stroke-miterlimit:10;stroke-opacity:1;stroke-dasharray:none"
       id="path376"
       inkscape:connector-curvature="0" /><text
       xml:space="preserve"
       style="font-size:6.4000001px;font-style:normal;font-variant:normal;font-weight:normal;font-stretch:normal;line-height:125%;letter-spacing:0px;word-spacing:0px;fill:#000000;fill-opacity:1;stroke:none;font-family:Arial;-inkscape-font-specification:Arial"
       x="35.028305"
       y="-394.87769"
       id="text3335"
       sodipodi:linespacing="125%"
       transform="scale(1,-1)"><tspan
         sodipodi:role="line"
         id="tspan3337"
         x="35.028305"
         y="-394.87769"
         style="font-size:7.19999981px">* A protein is counted as detected if it is observed in at least one bioligical replicate. As Soares  used two biological replicates and we used three biological repeats these two numbers are not necissarly directly equivalent.</tspan></text>
</g></svg>